<?xml version="1.0" encoding="utf-8"?>
<!-- Generator: Adobe Illustrator 27.0.0, SVG Export Plug-In . SVG Version: 6.00 Build 0)  -->
<svg version="1.1" id="Livello_1" xmlns="http://www.w3.org/2000/svg" xmlns:xlink="http://www.w3.org/1999/xlink" x="0px" y="0px"
	 viewBox="0 0 1000 1000" style="enable-background:new 0 0 1000 1000;" xml:space="preserve">
<style type="text/css">
	.st0{fill:#E52628;}
	.st1{fill:#2A4258;}
	.st2{fill:#FFFFFF;}
	.st3{font-family:'Impact';}
	.st4{font-size:201.1873px;}
	.st5{font-size:77.2212px;}
	.st6{letter-spacing:12;}
</style>
<path class="st0" d="M776.57,369.86l-66.62,29.61c-10.53,4.68-22.82,2.93-31.62-4.52l-46.16-39.06l9.32-4.66l4.66-4.66l42.47,34.75
	c5.38,4.4,12.77,5.42,19.14,2.63l64.15-28.07L776.57,369.86L776.57,369.86z"/>
<path class="st0" d="M642.34,254.68l-64.91,33.19c-10.26,5.25-16.62,15.91-16.36,27.43l1.35,60.45l9.48-4.32l6.55-0.69l-0.32-54.88
	c-0.04-6.95,3.82-13.34,9.98-16.54l62.16-32.24L642.34,254.68L642.34,254.68z"/>
<circle class="st0" cx="667.44" cy="251.41" r="27.95"/>
<path class="st0" d="M778.78,383.17l-18.01-36.01c-1.92-3.84-0.36-8.51,3.48-10.44l36.01-18.01c3.84-1.92,8.51-0.36,10.44,3.48
	l18.01,36.01c1.92,3.84,0.36,8.51-3.48,10.44l-36.01,18.01C785.37,388.57,780.7,387.01,778.78,383.17z"/>
<rect x="608.12" y="463.71" class="st1" width="125.78" height="193.16"/>
<rect x="733.9" y="463.71" class="st0" width="125.78" height="193.16"/>
<rect x="859.67" y="463.71" class="st1" width="125.78" height="193.16"/>
<circle class="st1" cx="147.74" cy="341.91" r="39.59"/>
<rect x="227.76" y="317.9" transform="matrix(0.5 -0.866 0.866 0.5 -220.3028 400.7086)" class="st1" width="18.22" height="146.48"/>
<circle class="st1" cx="168.71" cy="679.61" r="67.54"/>
<rect x="250.3" y="506.27" transform="matrix(0.7346 0.6785 -0.6785 0.7346 460.8937 -22.6583)" class="st1" width="18.22" height="143.05"/>
<rect x="456.01" y="491.49" transform="matrix(0.6785 -0.7346 0.7346 0.6785 -261.3269 521.4799)" class="st1" width="18.22" height="135.62"/>
<circle class="st1" cx="546" cy="628.38" r="46.58"/>
<rect x="395.9" y="197.87" transform="matrix(0.9704 0.2415 -0.2415 0.9704 84.2768 -88.9519)" class="st1" width="18.22" height="202.91"/>
<circle class="st1" cx="438.87" cy="157.92" r="55.9"/>
<rect x="619.27" y="114.47" transform="matrix(0.4062 0.9138 -0.9138 0.4062 692.3854 -366.7242)" class="st0" width="18.22" height="469.89"/>
<path class="st0" d="M896.3,223.46h-79.24c-2.86,0-4.72,3.01-3.44,5.57l31.7,63.39c1.28,2.56,4.8,2.88,6.52,0.59l47.55-63.39
	C901.28,227.08,899.47,223.46,896.3,223.46z"/>
<rect x="648.55" y="486.17" class="st2" width="44.92" height="157.22"/>
<rect x="776.31" y="486.17" class="st2" width="44.92" height="157.22"/>
<g>
	<text transform="matrix(1.0795 0 0 1 868.6641 643.8779)" class="st2 st3 st4">S</text>
</g>
<g>
	<text transform="matrix(1.1664 0 0 1 607.9434 732.4736)" class="st1 st3 st5 st6">M. HACK</text>
</g>
<path class="st0" d="M643,270"/>
<circle class="st0" cx="357.35" cy="467.68" r="79.19"/>
</svg>
